<svg width="36" height="37" viewBox="0 0 36 37" fill="none" xmlns="http://www.w3.org/2000/svg">
<path d="M19.5 24.6667H16.5V27.7501H19.5V24.6667Z" fill="white"/>
<path d="M19.5 9.25H16.5V21.5833H19.5V9.25Z" fill="white"/>
<path d="M31.5 7.70837V6.16671H30V4.62504H28.5V3.08337H7.5V4.62504H6V6.16671H4.5V7.70837H3V29.2917H4.5V30.8334H6V32.375H7.5V33.9167H28.5V32.375H30V30.8334H31.5V29.2917H33V7.70837H31.5ZM30 26.2084H28.5V27.75H27V29.2917H25.5V30.8334H10.5V29.2917H9V27.75H7.5V26.2084H6V10.7917H7.5V9.25004H9V7.70837H10.5V6.16671H25.5V7.70837H27V9.25004H28.5V10.7917H30V26.2084Z" fill="white"/>
</svg>
